<?xml version="1.0" encoding="iso-8859-1"?>
<!-- Generator: Adobe Illustrator 16.0.3, SVG Export Plug-In . SVG Version: 6.00 Build 0)  -->
<!DOCTYPE svg PUBLIC "-//W3C//DTD SVG 1.1//EN" "http://www.w3.org/Graphics/SVG/1.1/DTD/svg11.dtd">
<svg version="1.1" id="Layer_1" xmlns="http://www.w3.org/2000/svg" xmlns:xlink="http://www.w3.org/1999/xlink" x="0px" y="0px"
	 width="600px" height="600px" viewBox="0 0 600 600" style="enable-background:new 0 0 600 600;" xml:space="preserve">
<g transform="translate(0.000000,600.000000) scale(0.100000,-0.100000)">
	<path style="fill:#FFFFFF;" d="M5904.006,3457.004c41.992,186.997,0,395-112.002,560L5750.002,4078l20,78.003
		c72.998,282.998,0.996,557.998-202.002,776.001l-52.998,56.997l-0.996,123.003c0,98.999-5,137.998-23.008,197.998
		c-110,357.002-431.992,577.998-970.996,665c-127.002,21.001-572.998,27.002-1135,15C2793,5978,2249.001,5938,1752.004,5870.002
		c-70-10-74.004-8.999-125,18.999c-116.001,65-124.004,66.001-637.002,66.001c-422.998,0-470-2.002-525-17.998
		c-168.999-52.002-296.001-170-357.998-332.001l-22.002-60l-2.998-1100c-2.002-782.002,0-1117.002,7.998-1160
		c40-212.002,227.002-387.002,445-415.996c50-6.006,243.999-9.004,505-7.002l425,2.998l75,27.002c41.001,13.994,75,25,76.001,25
		c0-1.006,21.997-40,48.999-87.002c70-124.004,147.002-222.998,252.998-325c99.004-94.004,182.002-195,273.003-330
		c186.001-277.998,430-769.004,641.997-1290l61.001-150l1.001-180c2.002-149.004,5-192.998,22.998-257.002
		c40-145.996,100-225.996,204.004-272.998C3180.998-0.993,3188-1.999,3304.006,2.005c215.996,10,375.996,77.998,522.998,225
		c70,70,90,97.998,132.002,185c56.992,117.998,75.996,190.996,90.996,335.996c19.004,182.998-17.002,451.006-95.996,707.998
		c-96.006,314.004-114.004,377.002-138.008,485c-21.992,97.002-50,299.004-42.998,305c1.006,1.006,81.006-13.994,177.002-31.992
		c262.002-52.002,452.002-74.004,685-81.006c472.002-13.994,774.004,65,975.996,254.004c70,65,141.006,175.996,170,263.994
		c21.006,64.004,24.004,93.008,24.004,214.004c0,117.998-4.004,151.001-22.998,212.998l-22.998,72.002l25,32.998
		C5824.006,3235.002,5885.998,3378,5904.006,3457.004z M1529.001,3312.004c-12.998-26.001-37.998-54.004-61.997-70l-41.001-27.002
		l-415-2.998c-272.002-2.002-428.999,0.996-452.002,6.997c-48.999,15-86.001,45-108.999,92.002c-20,36.997-20,62.998-20,1098.999
		c0,1037.002,0,1062.002,20,1100c21.001,41.001,63.999,77.002,107.998,90c41.001,12.002,810,12.002,854.004,0
		c50-13.999,96.997-55,118.999-105c17.998-37.998,18.999-92.998,18.999-1088.999
		C1550.002,3357.004,1550.002,3356.003,1529.001,3312.004z M5533,3450.002c-17.998-36.001-55-92.002-82.998-123.999
		c-29.004-33.003-55.996-70-60.996-83.003c-19.004-50-10-113.999,25-186.997c43.994-91.001,60.996-181.001,46.992-246.997
		C5412.004,2580.999,5179.006,2478,4715.002,2478c-267.002,1.006-509.004,31.006-855,109.004
		c-180.996,40-264.004,22.998-349.004-72.998c-60.996-70-82.998-148.008-82.998-299.004c0-192.998,41.006-387.002,161.006-772.998
		c67.998-220,98.994-355,110.996-492.998c14.004-162.002-12.998-322.002-70-414.004c-35.996-57.002-125.996-132.002-187.998-155
		c-72.002-27.002-162.002-44.004-172.998-32.998c-21.006,20.996-31.006,130-24.004,242.998c5,62.998,7.998,132.002,7.002,152.998
		c-2.998,76.006-253.003,670-437.002,1037.002c-232.998,465.996-418.999,747.002-633.999,960
		c-152.002,149.004-215,242.998-278.003,410c-23.999,62.002-23.999,68.999-12.998,155c7.998,65,11.001,382.002,7.998,1161.001
		l-2.998,1071.001l110,11.997c571.001,63.003,996.001,90,1455,92.002c140,1.001,315.996,5,390,7.998
		c210,12.002,225,12.002,392.002,1.001c485-31.001,790.996-163.999,895.996-387.998c24.004-50,27.002-69.004,26.006-157.002
		c0-55-4.004-130-8.008-166.001c-7.998-58.999-5.996-71.001,13.008-106.001c11.992-20.996,48.994-60,80.996-86.997
		C5367.004,4652.004,5438,4528,5447.004,4399.001c5.996-78.999-7.002-148.999-47.002-238.999c-30.996-70-37.998-128.999-20-173.999
		c5-13.999,35-56.001,65-93.003c30.996-37.998,70-96.997,87.998-132.998c29.004-57.998,32.002-73.999,32.002-155
		S5562.004,3508,5533,3450.002z"/>
	<path d="M5389.006,3243c-19.004-50-10-113.999,25-186.997c43.994-91.001,60.996-181.001,46.992-246.997
		C5412.004,2580.999,5179.006,2478,4715.002,2478c-267.002,1.006-509.004,31.006-855,109.004
		c-180.996,40-264.004,22.998-349.004-72.998c-60.996-70-82.998-148.008-82.998-299.004c0-192.998,41.006-387.002,161.006-772.998
		c67.998-220,98.994-355,110.996-492.998c14.004-162.002-12.998-322.002-70-414.004c-35.996-57.002-125.996-132.002-187.998-155
		c-72.002-27.002-162.002-44.004-172.998-32.998c-21.006,20.996-31.006,130-24.004,242.998c5,62.998,7.998,132.002,7.002,152.998
		c-2.998,76.006-253.003,670-437.002,1037.002c-232.998,465.996-418.999,747.002-633.999,960
		c-152.002,149.004-215,242.998-278.003,410c-23.999,62.002-23.999,68.999-12.998,155c7.998,65,11.001,382.002,7.998,1161.001
		l-2.998,1071.001l110,11.997c571.001,63.003,996.001,90,1455,92.002c140,1.001,315.996,5,390,7.998
		c210,12.002,225,12.002,392.002,1.001c485-31.001,790.996-163.999,895.996-387.998c24.004-50,27.002-69.004,26.006-157.002
		c0-55-4.004-130-8.008-166.001c-7.998-58.999-5.996-71.001,13.008-106.001c11.992-20.996,48.994-60,80.996-86.997
		C5367.004,4652.004,5438,4528,5447.004,4399.001c5.996-78.999-7.002-148.999-47.002-238.999c-30.996-70-37.998-128.999-20-173.999
		c5-13.999,35-56.001,65-93.003c30.996-37.998,70-96.997,87.998-132.998c29.004-57.998,32.002-73.999,32.002-155
		s-2.998-97.002-32.002-155c-17.998-36.001-55-92.002-82.998-123.999C5420.998,3293,5394.006,3256.003,5389.006,3243z"/>
	<path d="M1550.002,4406.003c0-1048.999,0-1050-21.001-1093.999c-12.998-26.001-37.998-54.004-61.997-70l-41.001-27.002l-415-2.998
		c-272.002-2.002-428.999,0.996-452.002,6.997c-48.999,15-86.001,45-108.999,92.002c-20,36.997-20,62.998-20,1098.999
		c0,1037.002,0,1062.002,20,1100c21.001,41.001,63.999,77.002,107.998,90c41.001,12.002,810,12.002,854.004,0
		c50-13.999,96.997-55,118.999-105C1549.001,5457.004,1550.002,5402.004,1550.002,4406.003z"/>
</g>
</svg>
