<?xml version="1.0" standalone="no"?>
<!DOCTYPE svg PUBLIC "-//W3C//DTD SVG 20010904//EN"
 "http://www.w3.org/TR/2001/REC-SVG-20010904/DTD/svg10.dtd">
<svg version="1.0" xmlns="http://www.w3.org/2000/svg"
 width="600.000000pt" height="600.000000pt" viewBox="0 0 600.000000 600.000000"
 preserveAspectRatio="xMidYMid meet">
<metadata>
Created by potrace 1.15, written by Peter Selinger 2001-2017
</metadata>
<g transform="translate(0.000000,600.000000) scale(0.100000,-0.100000)"
fill="#000000" stroke="none">
<path d="M3385 5990 c-592 -12 -1136 -52 -1633 -120 -70 -10 -74 -9 -125 19
-116 65 -124 66 -637 66 -423 0 -470 -2 -525 -18 -169 -52 -296 -170 -358
-332 l-22 -60 -3 -1100 c-2 -782 0 -1117 8 -1160 40 -212 227 -387 445 -416
50 -6 244 -9 505 -7 l425 3 75 27 c41 14 75 25 76 25 0 -1 22 -40 49 -87 70
-124 147 -223 253 -325 99 -94 182 -195 273 -330 186 -278 430 -769 642 -1290
l61 -150 1 -180 c2 -149 5 -193 23 -257 40 -146 100 -226 204 -273 59 -26 66
-27 182 -23 216 10 376 78 523 225 70 70 90 98 132 185 57 118 76 191 91 336
19 183 -17 451 -96 708 -96 314 -114 377 -138 485 -22 97 -50 299 -43 305 1 1
81 -14 177 -32 262 -52 452 -74 685 -81 472 -14 774 65 976 254 70 65 141 176
170 264 21 64 24 93 24 214 0 118 -4 151 -23 213 l-23 72 25 33 c40 52 102
195 120 274 42 187 0 395 -112 560 l-42 61 20 78 c73 283 1 558 -202 776 l-53
57 -1 123 c0 99 -5 138 -23 198 -110 357 -432 578 -971 665 -127 21 -573 27
-1135 15z m857 -340 c485 -31 791 -164 896 -388 24 -50 27 -69 26 -157 0 -55
-4 -130 -8 -166 -8 -59 -6 -71 13 -106 12 -21 49 -60 81 -87 117 -94 188 -218
197 -347 6 -79 -7 -149 -47 -239 -31 -70 -38 -129 -20 -174 5 -14 35 -56 65
-93 31 -38 70 -97 88 -133 29 -58 32 -74 32 -155 0 -81 -3 -97 -32 -155 -18
-36 -55 -92 -83 -124 -29 -33 -56 -70 -61 -83 -19 -50 -10 -114 25 -187 44
-91 61 -181 47 -247 -49 -228 -282 -331 -746 -331 -267 1 -509 31 -855 109
-181 40 -264 23 -349 -73 -61 -70 -83 -148 -83 -299 0 -193 41 -387 161 -773
68 -220 99 -355 111 -493 14 -162 -13 -322 -70 -414 -36 -57 -126 -132 -188
-155 -72 -27 -162 -44 -173 -33 -21 21 -31 130 -24 243 5 63 8 132 7 153 -3
76 -253 670 -437 1037 -233 466 -419 747 -634 960 -152 149 -215 243 -278 410
-24 62 -24 69 -13 155 8 65 11 382 8 1161 l-3 1071 110 12 c571 63 996 90
1455 92 140 1 316 5 390 8 210 12 225 12 392 1z m-2830 -50 c50 -14 97 -55
119 -105 18 -38 19 -93 19 -1089 0 -1049 0 -1050 -21 -1094 -13 -26 -38 -54
-62 -70 l-41 -27 -415 -3 c-272 -2 -429 1 -452 7 -49 15 -86 45 -109 92 -20
37 -20 63 -20 1099 0 1037 0 1062 20 1100 21 41 64 77 108 90 41 12 810 12
854 0z"/>
</g>
</svg>
