<?xml version="1.0" encoding="iso-8859-1"?>
<!-- Generator: Adobe Illustrator 16.0.3, SVG Export Plug-In . SVG Version: 6.00 Build 0)  -->
<!DOCTYPE svg PUBLIC "-//W3C//DTD SVG 1.1//EN" "http://www.w3.org/Graphics/SVG/1.1/DTD/svg11.dtd">
<svg version="1.1" id="Capa_1" xmlns="http://www.w3.org/2000/svg" xmlns:xlink="http://www.w3.org/1999/xlink" x="0px" y="0px"
	 width="1000px" height="1000px" viewBox="0 0 1000 1000" style="enable-background:new 0 0 1000 1000;" xml:space="preserve">
<g>
	<path style="fill:#FFFFFF;" d="M956.87,679.84c20.49-26.14,30.32-54.16,29.07-83.02c-1.261-31.78-15.48-56.67-27.19-71.931
		c13.59-33.88,18.82-87.209-26.56-128.61c-33.25-30.32-89.71-43.92-167.921-40.15c-55,2.51-101,12.75-102.88,13.17h-0.21
		c-10.46,1.88-21.54,4.18-32.83,6.69c-0.84-13.38,1.46-46.63,26.141-121.49c29.27-89.09,27.6-157.26-5.44-202.85
		C614.33,3.76,558.92,0,542.611,0c-15.69,0-30.12,6.48-40.36,18.4c-23.21,26.98-20.5,76.75-17.57,99.75
		c-27.6,74.03-104.97,255.54-170.43,305.94c-1.25,0.84-2.3,1.88-3.34,2.93c-19.24,20.28-32.21,42.24-40.99,61.48
		c-12.34-6.69-26.35-10.46-41.41-10.46H100.95c-48.1,0-86.99,39.11-86.99,87v339.81c0,48.101,39.1,86.99,86.99,86.99h127.56
		c18.61,0,35.97-5.85,50.19-15.89l49.14,5.859c7.53,1.04,141.37,17.98,278.76,15.261c24.881,1.89,48.301,2.93,70.051,2.93
		c37.43,0,70.06-2.93,97.239-8.78c63.99-13.6,107.7-40.779,129.86-80.72c16.94-30.53,16.94-60.86,14.22-80.09
		c41.62-37.65,48.94-79.26,47.471-108.54C964.611,704.94,960.84,690.51,956.87,679.84z M259.04,904.639
		c0,16.94-13.8,30.53-30.53,30.53H100.95v0.21c-16.94,0-30.53-13.8-30.53-30.53V564.83c0-16.94,13.8-30.53,30.53-30.53h127.56
		c16.94,0,30.53,13.8,30.53,30.53V904.639z M903.33,655.38c-8.78,9.2-10.45,23.21-3.76,34.08c0,0.21,8.569,14.85,9.62,34.92
		c1.46,27.4-11.71,51.66-39.311,72.36c-9.83,7.529-13.81,20.49-9.62,32.2c0,0.21,8.99,27.81-5.649,53.949
		c-14.011,25.101-45.17,43.08-92.431,53.12c-37.85,8.16-89.29,9.62-152.449,4.601h-2.921c-134.47,2.93-270.39-14.641-271.859-14.851
		h-0.21l-21.12-2.51c1.26-5.85,1.89-12.13,1.89-18.4V564.83c0-9-1.47-17.78-3.98-25.93c3.77-14.011,14.22-45.17,38.9-71.73
		c93.89-74.45,185.69-325.6,189.669-336.47c1.67-4.39,2.091-9.2,1.25-14.01c-3.55-23.42-2.3-52.07,2.721-60.65
		c11.08,0.21,40.989,3.35,58.97,28.23c21.33,29.49,20.5,82.19-2.51,152.03c-35.13,106.44-38.061,162.49-10.24,187.16
		c13.8,12.34,32.2,12.97,45.58,8.16c12.76-2.93,24.89-5.44,36.39-7.32c0.84-0.21,1.88-0.42,2.721-0.63
		c64.199-14.01,179.21-22.58,219.149,13.8c33.88,30.95,9.83,71.94,7.11,76.33c-7.73,11.71-5.431,26.98,5.02,36.391
		c0.21,0.21,22.17,20.909,23.21,48.72C930.31,617.519,921.531,636.55,903.33,655.38z"/>
	<path d="M909.191,724.38c1.46,27.4-11.71,51.66-39.311,72.36c-9.83,7.529-13.81,20.49-9.62,32.2c0,0.21,8.99,27.81-5.649,53.949
		c-14.011,25.101-45.17,43.08-92.431,53.12c-37.85,8.16-89.29,9.62-152.449,4.601h-2.921c-134.47,2.93-270.39-14.641-271.859-14.851
		h-0.21l-21.12-2.51c1.26-5.85,1.89-12.13,1.89-18.4V564.83c0-9-1.47-17.78-3.98-25.93c3.77-14.011,14.22-45.17,38.9-71.73
		c93.89-74.45,185.69-325.6,189.669-336.47c1.67-4.39,2.091-9.2,1.25-14.01c-3.55-23.42-2.3-52.07,2.721-60.65
		c11.08,0.21,40.989,3.35,58.97,28.23c21.33,29.49,20.5,82.19-2.51,152.03c-35.13,106.44-38.061,162.49-10.24,187.16
		c13.8,12.34,32.2,12.97,45.58,8.16c12.76-2.93,24.89-5.44,36.39-7.32c0.84-0.21,1.88-0.42,2.721-0.63
		c64.199-14.01,179.21-22.58,219.149,13.8c33.88,30.95,9.83,71.94,7.11,76.33c-7.73,11.71-5.431,26.98,5.02,36.391
		c0.21,0.21,22.17,20.909,23.21,48.72c0.84,18.609-7.939,37.64-26.14,56.47c-8.78,9.2-10.45,23.21-3.76,34.08
		C899.571,689.67,908.14,704.309,909.191,724.38z"/>
	<path d="M259.04,564.83v339.81c0,16.94-13.8,30.53-30.53,30.53H100.95v0.21c-16.94,0-30.53-13.8-30.53-30.53V564.83
		c0-16.94,13.8-30.53,30.53-30.53h127.56C245.45,534.3,259.04,548.099,259.04,564.83z"/>
</g>
</svg>
